{
  "accessors": [
    {
      "bufferView": 1,
      "componentType": 5126,
      "count": 65532,
      "max": [
        53.27521514892578,
        29.33643913269043,
        178.25985717773438
      ],
      "min": [
        -56.95069122314453,
        -48.30937576293945,
        -82.44863891601563
      ],
      "type": "VEC3"
    },
    {
      "bufferView": 1,
      "byteOffset": 786384,
      "componentType": 5126,
      "count": 65532,
      "max": [
        0.9999964237213135,
        0.9999940991401672,
        0.9999908804893494
      ],
      "min": [
        -0.9999998807907104,
        -1.0,
        -0.9999498128890991
      ],
      "type": "VEC3"
    },
    {
      "bufferView": 0,
      "componentType": 5125,
      "count": 356220,
      "type": "SCALAR"
    },
    {
      "bufferView": 1,
      "byteOffset": 1572768,
      "componentType": 5126,
      "count": 65532,
      "max": [
        40.70844268798828,
        33.943538665771484,
        191.65647888183594
      ],
      "min": [
        -83.98680114746094,
        -65.63209533691406,
        -82.44863891601563
      ],
      "type": "VEC3"
    },
    {
      "bufferView": 1,
      "byteOffset": 2359152,
      "componentType": 5126,
      "count": 65532,
      "max": [
        0.9999696016311646,
        0.9999951720237732,
        0.9999783635139465
      ],
      "min": [
        -0.999992847442627,
        -0.9999999403953552,
        -0.9999056458473206
      ],
      "type": "VEC3"
    },
    {
      "bufferView": 0,
      "byteOffset": 1424880,
      "componentType": 5125,
      "count": 343548,
      "type": "SCALAR"
    },
    {
      "bufferView": 1,
      "byteOffset": 3145536,
      "componentType": 5126,
      "count": 65532,
      "max": [
        52.83732223510742,
        33.91249084472656,
        197.27859497070313
      ],
      "min": [
        -84.46211242675781,
        -65.63209533691406,
        -82.44863891601563
      ],
      "type": "VEC3"
    },
    {
      "bufferView": 1,
      "byteOffset": 3931920,
      "componentType": 5126,
      "count": 65532,
      "max": [
        0.9999313950538635,
        0.9999894499778748,
        0.9998463988304138
      ],
      "min": [
        -0.9999531507492065,
        -0.9999886751174927,
        -1.0
      ],
      "type": "VEC3"
    },
    {
      "bufferView": 0,
      "byteOffset": 2799072,
      "componentType": 5125,
      "count": 319689,
      "type": "SCALAR"
    },
    {
      "bufferView": 1,
      "byteOffset": 4718304,
      "componentType": 5126,
      "count": 20893,
      "max": [
        39.082679748535156,
        34.032833099365234,
        111.86795806884766
      ],
      "min": [
        -56.87594223022461,
        -32.69091796875,
        -30.78333282470703
      ],
      "type": "VEC3"
    },
    {
      "bufferView": 1,
      "byteOffset": 4969020,
      "componentType": 5126,
      "count": 20893,
      "max": [
        0.9998965859413147,
        0.999939501285553,
        0.9320427775382996
      ],
      "min": [
        -0.9999747276306152,
        -0.9999463558197021,
        -0.9992045760154724
      ],
      "type": "VEC3"
    },
    {
      "bufferView": 0,
      "byteOffset": 4077828,
      "componentType": 5125,
      "count": 96333,
      "type": "SCALAR"
    }
  ],
  "asset": {
    "extras": {
      "author": "BrightonMuseums (https://sketchfab.com/BrightonMuseums)",
      "license": "CC-BY-SA-4.0 (http://creativecommons.org/licenses/by-sa/4.0/)",
      "source": "https://sketchfab.com/3d-models/victorian-cricketer-5a5047ab11ca4b30b0b002dca7e0104a",
      "title": "Victorian cricketer"
    },
    "generator": "Sketchfab-12.67.0",
    "version": "2.0"
  },
  "bufferViews": [
    {
      "buffer": 0,
      "byteLength": 4463160,
      "name": "floatBufferViews",
      "target": 34963
    },
    {
      "buffer": 0,
      "byteLength": 5219736,
      "byteOffset": 4463160,
      "byteStride": 12,
      "name": "floatBufferViews",
      "target": 34962
    }
  ],
  "buffers": [
    {
      "byteLength": 9682896,
      "uri": "scene.bin"
    }
  ],
  "materials": [
    {
      "doubleSided": true,
      "name": "Scene_-_Root",
      "pbrMetallicRoughness": {
        "metallicFactor": 0.0,
        "roughnessFactor": 0.6
      }
    }
  ],
  "meshes": [
    {
      "name": "Object_0",
      "primitives": [
        {
          "attributes": {
            "NORMAL": 1,
            "POSITION": 0
          },
          "indices": 2,
          "material": 0,
          "mode": 4
        }
      ]
    },
    {
      "name": "Object_1",
      "primitives": [
        {
          "attributes": {
            "NORMAL": 4,
            "POSITION": 3
          },
          "indices": 5,
          "material": 0,
          "mode": 4
        }
      ]
    },
    {
      "name": "Object_2",
      "primitives": [
        {
          "attributes": {
            "NORMAL": 7,
            "POSITION": 6
          },
          "indices": 8,
          "material": 0,
          "mode": 4
        }
      ]
    },
    {
      "name": "Object_3",
      "primitives": [
        {
          "attributes": {
            "NORMAL": 10,
            "POSITION": 9
          },
          "indices": 11,
          "material": 0,
          "mode": 4
        }
      ]
    }
  ],
  "nodes": [
    {
      "children": [
        1
      ],
      "matrix": [
        0.0,
        -2.220446049250313e-16,
        1.0,
        0.0,
        1.0,
        0.0,
        0.0,
        0.0,
        0.0,
        1.0,
        2.220446049250313e-16,
        0.0,
        0.20634078979492188,
        -6.97064662800095e-15,
        31.393001556396484,
        1.0
      ],
      "name": "Sketchfab_model"
    },
    {
      "children": [
        2,
        3,
        4,
        5
      ],
      "name": "cricketer.stl.cleaner.materialmerger.gles"
    },
    {
      "mesh": 0,
      "name": "Object_2"
    },
    {
      "mesh": 1,
      "name": "Object_3"
    },
    {
      "mesh": 2,
      "name": "Object_4"
    },
    {
      "mesh": 3,
      "name": "Object_5"
    }
  ],
  "scene": 0,
  "scenes": [
    {
      "name": "Sketchfab_Scene",
      "nodes": [
        0
      ]
    }
  ]
}
